<svg viewBox="0 0 512 512" fill="none" xmlns="http://www.w3.org/2000/svg">
  <path d="M359.743 102.353C363.773 97.0524 376.894 70.9329 381.529 58.9864C389.617 38.1422 386.431 76.5137 378.05 100.896C371.257 120.662 364.361 129.354 347.378 139.56C337.085 145.746 315.661 152.821 294.83 156.914C277.697 160.281 266.795 164.387 259.398 170.259C256.148 172.838 250.262 176.368 246.317 178.101C242.372 179.834 234.451 185.891 228.716 191.559C217.432 202.713 213.447 203.606 217.43 194.088C221.617 184.078 230.082 172.15 240.101 162.143C248.816 153.438 249.335 152.577 245.254 153.595C242.757 154.219 235.645 156.834 229.45 159.406C218.183 164.085 211.559 169.39 197.816 184.733C194.105 188.877 190.43 192.05 189.648 191.783C187.383 191.012 206.086 160.547 212.723 154.195C223.904 143.497 244.336 135.349 281.078 126.938C294.249 123.924 308.017 120.016 311.675 118.254C321.576 113.485 329.718 103.091 341.152 80.6343C346.796 69.5479 352.093 60.4764 352.924 60.4764C355 60.4764 354.934 60.9495 350.636 76.9273C346.054 93.9612 341.964 103.742 335.51 113.112L330.655 120.161L336.664 117.654C347.174 113.27 355.781 107.564 359.743 102.353Z" fill="black"/>
  <path d="M321.791 165.951C336.688 158.811 369.647 139.231 405.381 116.294C418.304 107.999 429.38 101.212 429.994 101.212C433.116 101.212 432.656 105.751 428.175 119.189C421.441 139.377 395.076 191.258 387.699 198.838C380.48 206.254 366.805 212.812 350.907 216.485C344.222 218.028 338.75 219.867 338.75 220.573C338.75 221.276 339.411 221.853 340.219 221.853C341.025 221.853 345.964 227.082 351.194 233.475C356.723 240.234 366.447 249.363 374.431 255.292C392.71 268.865 395.17 271.093 404.665 282.682C409.13 288.131 415.008 293.945 417.728 295.601C421.748 298.05 422.078 298.613 419.489 298.618C416.186 298.624 414.302 297.405 395.033 282.796C388.665 277.969 379.427 271.765 374.504 269.01L365.552 264.003L369.54 271.129C374.243 279.533 372.558 280.656 367.15 272.724C365.083 269.694 360.847 264.992 357.738 262.275C349.24 254.853 335.939 236.621 333.786 229.44C332.738 225.95 331.016 222.761 329.957 222.355C328.898 221.95 322.15 222.623 314.959 223.852C307.77 225.08 301.251 225.73 300.475 225.296C297.622 223.706 304.881 220.491 331.323 211.634C346.192 206.653 360.846 201.342 363.887 199.83C371.716 195.937 382.646 183.708 389.735 170.913C393.069 164.891 399.099 155.03 403.135 148.998C409.532 139.438 421.886 116.792 421.886 114.631C421.886 114.213 412.886 120.436 401.887 128.46C373.288 149.323 345.033 167.696 331.14 174.461C320.338 179.724 317.886 180.307 306.531 180.319C296.498 180.33 292.971 179.693 289.277 177.2L284.634 174.066L296.505 173.224C306.122 172.54 310.923 171.16 321.791 165.951Z" fill="black"/>
  <path d="M275.867 171.889C276.626 170.69 279.969 169.186 283.294 168.547C286.619 167.907 290.279 167.655 291.429 167.984C292.577 168.313 294.342 168.623 295.35 168.675C296.756 168.746 276.585 176.341 274.83 176.402C273.986 176.432 274.554 173.958 275.867 171.889Z" fill="black"/>
  <path d="M154.388 248.834C158.005 224.773 161.897 214.962 173.63 200.31C181.697 190.237 187.059 191.367 181.63 201.995C174.61 215.739 172.235 225.751 170.237 250.054C168.008 277.128 166.512 281.565 154.281 297.309C146.807 306.932 143.495 313.063 132.843 337.009C126.034 352.315 118.57 365.811 102.158 392.496C97.697 399.747 94.0484 407.457 94.0484 409.627C94.0484 414.039 99.3769 425.929 102.522 428.538C104.069 429.819 109.477 426.96 124.796 416.764C151.268 399.144 166.068 390.405 167.318 391.653C167.873 392.208 167.21 393.536 165.842 394.603C164.474 395.672 153.05 404.986 140.457 415.302L117.56 434.059L123.452 437.625C136.54 445.548 138.013 445.464 151.611 436.011C158.342 431.331 169.562 424.289 176.543 420.361C183.521 416.433 194.713 409.292 201.413 404.491C213.81 395.608 223.273 392.015 214.046 399.695L209.341 403.612L220.04 399.843C232.153 395.573 241.561 390.03 269.674 370.599C297.065 351.668 303.512 348.66 297.102 357.799C294.743 361.163 295.228 361.822 312.941 379.349C323.085 389.389 334.457 399.094 338.51 401.17C345.706 404.856 363.639 421.561 362.077 423.122C361.635 423.563 358.32 421.754 354.709 419.103C351.1 416.45 342.575 411.969 335.765 409.145C322.122 403.482 305.152 392.379 291.328 380.069L282.339 372.062L268.584 383.996C250.819 399.41 237.588 408.125 221.375 415.087C203.745 422.659 191.209 429.805 166.821 446.189C148.134 458.742 145.582 460 138.805 460C129.9 460 114.285 452.381 109.25 445.579C107.239 442.861 104.552 441.199 102.174 441.199C97.2076 441.199 88.4281 431.941 83.625 421.636C77.2785 408.024 78.1051 404.399 95.5448 369.35C104.133 352.091 114.079 331.057 117.65 322.606C125.841 303.219 129.819 296.343 138.912 285.859C148.631 274.654 151.558 267.654 154.388 248.834Z" fill="black"/>
	<style>
    @media (prefers-color-scheme:dark){:root{filter:invert(100%)}}
  </style>
</svg>
